<svg xmlns="http://www.w3.org/2000/svg" width="26" height="25" viewBox="0 0 26 25" fill="none">
  <path fill-rule="evenodd" clip-rule="evenodd" d="M14.042 3.12516C14.042 2.54987 13.5756 2.0835 13.0003 2.0835C12.425 2.0835 11.9587 2.54987 11.9587 3.12516V3.71982C8.42522 4.22509 5.70868 7.26291 5.70868 10.9365L5.70868 15.1036C5.70868 15.1036 5.70869 15.1034 5.70868 15.1036C5.70858 15.1056 5.70787 15.1196 5.70335 15.1469C5.69793 15.1797 5.6883 15.2243 5.67241 15.2817C5.6402 15.398 5.58892 15.5429 5.51729 15.7142C5.37369 16.0576 5.17123 16.4529 4.94731 16.8518C4.52633 17.6017 4.31413 18.4954 4.47344 19.3452C4.64144 20.2414 5.21831 21.023 6.20353 21.3981C7.08365 21.7332 8.25517 22.0396 9.80228 22.2221C9.8391 22.254 9.88263 22.2905 9.93263 22.3305C10.0892 22.4557 10.3128 22.6181 10.5955 22.7796C11.1565 23.1002 11.986 23.4377 13.0003 23.4377C14.0147 23.4377 14.8442 23.1002 15.4052 22.7796C15.6878 22.6181 15.9115 22.4557 16.0681 22.3305C16.1181 22.2905 16.1616 22.254 16.1984 22.2221C17.7455 22.0396 18.917 21.7332 19.7972 21.3981C20.7824 21.023 21.3593 20.2414 21.5273 19.3452C21.6866 18.4954 21.4744 17.6017 21.0534 16.8518C20.8295 16.4529 20.627 16.0576 20.4834 15.7142C20.4118 15.5429 20.3605 15.398 20.3283 15.2817C20.3124 15.2243 20.3028 15.1797 20.2973 15.1469C20.2928 15.1195 20.2921 15.1058 20.292 15.1039C20.292 15.1037 20.292 15.1039 20.292 15.1039L20.292 15.0951V10.937C20.292 7.26349 17.5756 4.22517 14.042 3.71983V3.12516ZM7.79201 10.9365C7.79201 8.06029 10.1236 5.72933 13.0003 5.72933C15.877 5.72933 18.2087 8.06068 18.2087 10.937V15.1043C18.2087 15.5866 18.3894 16.1067 18.5614 16.518C18.7482 16.9648 18.9931 17.4377 19.2367 17.8716C19.4736 18.2935 19.53 18.6922 19.4796 18.9613C19.4378 19.1841 19.3265 19.3481 19.0558 19.4511C17.9362 19.8774 16.0461 20.3127 13.0003 20.3127C9.95459 20.3127 8.06452 19.8774 6.94487 19.4511C6.67419 19.3481 6.56285 19.1841 6.5211 18.9613C6.47065 18.6922 6.52713 18.2935 6.76398 17.8716C7.00757 17.4377 7.25246 16.9648 7.43932 16.518C7.61133 16.1067 7.79201 15.5866 7.79201 15.1043V10.9365Z" fill="#B1B1B1"/>
</svg>